<svg width="121" height="66" viewBox="0 0 121 66" fill="none" xmlns="http://www.w3.org/2000/svg">
<path d="M2.72 40V12H21V16.12H7.84V23.8H19.8V27.8H7.84V35.88H21V40H2.72ZM25.845 40V12H30.965V36H43.365V40H25.845ZM47.8763 40V12H66.1563V16.12H52.9963V23.8H64.9563V27.8H52.9963V35.88H66.1563V40H47.8763ZM79.1213 40L68.8813 12H74.3613L82.2813 34.76L90.2413 12H95.6413L85.4013 40H79.1213ZM93.6153 40L103.855 12H109.615L119.855 40H114.415L112.175 33.52H101.255L98.9753 40H93.6153ZM102.655 29.52H110.775L106.695 17.88L102.655 29.52Z" fill="#212427"/>
<path d="M22.628 59V43.6H27.358C30.0713 43.6 32.066 44.2893 33.342 45.668C34.6327 47.0467 35.278 48.9387 35.278 51.344C35.278 53.7053 34.6327 55.5753 33.342 56.954C32.066 58.318 30.0713 59 27.358 59H22.628ZM24.476 57.46H27.314C28.81 57.46 29.998 57.218 30.878 56.734C31.7727 56.2353 32.4107 55.5313 32.792 54.622C33.1733 53.698 33.364 52.6053 33.364 51.344C33.364 50.0533 33.1733 48.946 32.792 48.022C32.4107 47.098 31.7727 46.3867 30.878 45.888C29.998 45.3893 28.81 45.14 27.314 45.14H24.476V57.46ZM37.9464 59V43.6H47.4724V45.118H39.7944V50.486H46.8124V51.982H39.7944V57.482H47.4724V59H37.9464ZM55.2703 59.264C54.141 59.264 53.1583 59.0587 52.3223 58.648C51.4863 58.2373 50.841 57.6653 50.3863 56.932C49.9317 56.1987 49.7043 55.348 49.7043 54.38H51.6403C51.6403 54.9813 51.7797 55.5387 52.0583 56.052C52.337 56.5507 52.7403 56.954 53.2683 57.262C53.811 57.5553 54.4783 57.702 55.2703 57.702C56.3117 57.702 57.1183 57.4527 57.6903 56.954C58.2623 56.4553 58.5483 55.832 58.5483 55.084C58.5483 54.468 58.4163 53.9767 58.1523 53.61C57.8883 53.2287 57.529 52.9207 57.0743 52.686C56.6343 52.4513 56.121 52.246 55.5343 52.07C54.9623 51.894 54.361 51.696 53.7303 51.476C52.5423 51.0653 51.6623 50.5593 51.0903 49.958C50.5183 49.342 50.2323 48.5427 50.2323 47.56C50.2177 46.7387 50.4083 46.0127 50.8043 45.382C51.2003 44.7367 51.7577 44.238 52.4763 43.886C53.2097 43.5193 54.075 43.336 55.0723 43.336C56.055 43.336 56.9057 43.5193 57.6243 43.886C58.3577 44.2527 58.9223 44.7587 59.3183 45.404C59.729 46.0493 59.9417 46.7827 59.9563 47.604H58.0203C58.0203 47.1787 57.9103 46.7607 57.6903 46.35C57.4703 45.9247 57.133 45.58 56.6783 45.316C56.2383 45.052 55.681 44.92 55.0063 44.92C54.1703 44.9053 53.481 45.118 52.9383 45.558C52.4103 45.998 52.1463 46.6067 52.1463 47.384C52.1463 48.044 52.3297 48.55 52.6963 48.902C53.0777 49.254 53.6057 49.5473 54.2803 49.782C54.955 50.002 55.7323 50.2587 56.6123 50.552C57.3457 50.816 58.0057 51.124 58.5923 51.476C59.179 51.828 59.6337 52.2827 59.9563 52.84C60.2937 53.3973 60.4623 54.1087 60.4623 54.974C60.4623 55.7073 60.2717 56.404 59.8903 57.064C59.509 57.7093 58.9297 58.2373 58.1523 58.648C57.3897 59.0587 56.429 59.264 55.2703 59.264ZM63.0831 59V43.6H64.9311V59H63.0831ZM74.8184 59.264C73.381 59.264 72.1197 58.934 71.0344 58.274C69.949 57.5993 69.1057 56.668 68.5044 55.48C67.903 54.2773 67.6024 52.8913 67.6024 51.322C67.6024 49.7527 67.903 48.3667 68.5044 47.164C69.1204 45.9613 69.9857 45.0227 71.1004 44.348C72.2297 43.6733 73.557 43.336 75.0824 43.336C76.813 43.336 78.2504 43.754 79.3944 44.59C80.553 45.426 81.301 46.5773 81.6384 48.044H79.5044C79.299 47.12 78.8077 46.3867 78.0304 45.844C77.2677 45.3013 76.285 45.03 75.0824 45.03C73.953 45.03 72.9704 45.2867 72.1344 45.8C71.2984 46.2987 70.6457 47.0173 70.1764 47.956C69.7217 48.8947 69.4944 50.0167 69.4944 51.322C69.4944 52.6273 69.7217 53.7493 70.1764 54.688C70.631 55.6267 71.2617 56.3527 72.0684 56.866C72.875 57.3647 73.8137 57.614 74.8844 57.614C76.527 57.614 77.7664 57.1373 78.6024 56.184C79.4384 55.216 79.915 53.896 80.0324 52.224H75.5884V50.772H81.9244V59H80.2304L80.0764 56.47C79.519 57.3647 78.837 58.054 78.0304 58.538C77.2237 59.022 76.153 59.264 74.8184 59.264ZM84.8468 59V43.6H86.6948L94.9008 55.942V43.6H96.7488V59H94.9008L86.6948 46.658V59H84.8468Z" fill="#626889"/>
</svg>
